# xmcd CD database file
#
# Track frame offsets:
#	150
#	11416
#	19284
#	38967
#	58116
#	66852
#	90403
#	110055
#	147475
#	165100
#	193304
#	216360
#	249867
#	276717
#	295512
#
# Disc length: 4395 seconds
#
# Revision: 0
# Processed by: cddbd v1.5.2PL0 Copyright (c) Steve Scherf et al.
# Submitted via: CDex 1.70beta2
#
DISCID=df11290f
DTITLE=Rundfunk Blasorchester Leipzig - Konzert für Violoncello and Blasorchester - F. Gulda
DYEAR=2004
DGENRE=Blasmusik
TTITLE0=Fantasia para un gentilhombre (Joaquin Rodrigo) - Villano
TTITLE1=Fantasia para un gentilhombre (Joaquin Rodrigo) - Ricercare
TTITLE2=Fantasia para un gentilhombre (Joaquin Rodrigo) - Espanoleta
TTITLE3=Fantasia para un gentilhombre (Joaquin Rodrigo) - Fanfare de la Cabaslleria de Napoles
TTITLE4=Fantasia para un gentilhombre (Joaquin Rodrigo) - Danzas de las Hachas
TTITLE5=Fantasia para un gentilhombre (Joaquin Rodrigo) - Canario
TTITLE6=Octet for Wind Instruments (Igor Strawinsky) - Sinfonia
TTITLE7=Octet for Wind Instruments (Igor Strawinsky) - Tema con Variazioni
TTITLE8=Octet for Wind Instruments (Igor Strawinsky) - Finale
TTITLE9=Aria from Bachianas Brasileiras No. 5 (Heitor Villa-Lobos
TTITLE10=Konzert für Violoncello and Blasorchester (Friedrich Gulda) - Ouverture
TTITLE11=Konzert für Violoncello and Blasorchester (Friedrich Gulda) - Idylle
TTITLE12=Konzert für Violoncello and Blasorchester (Friedrich Gulda) - Cadenza
TTITLE13=Konzert für Violoncello and Blasorchester (Friedrich Gulda) - Menuett
TTITLE14=Konzert für Violoncello and Blasorchester (Friedrich Gulda) - Finale alla Marcia
EXTD=YEAR: 2004
EXTT0=
EXTT1=
EXTT2=
EXTT3=
EXTT4=
EXTT5=
EXTT6=
EXTT7=
EXTT8=
EXTT9=
EXTT10=
EXTT11=
EXTT12=
EXTT13=
EXTT14=
PLAYORDER=
